<?xml version="1.0" encoding="iso-8859-1"?>
<!-- Generator: Adobe Illustrator 19.0.0, SVG Export Plug-In . SVG Version: 6.00 Build 0)  -->
<svg version="1.1" id="Layer_1" xmlns="http://www.w3.org/2000/svg" xmlns:xlink="http://www.w3.org/1999/xlink" x="0px" y="0px"
	 viewBox="0 0 511.883 511.883" style="enable-background:new 0 0 511.883 511.883;" xml:space="preserve">
<path style="fill:#4FC2E9;" d="M170.617,319.931c0-94.229,76.404-170.625,170.633-170.625c94.244,0,170.633,76.396,170.633,170.625
	S435.494,490.548,341.25,490.548C247.021,490.547,170.617,414.159,170.617,319.931z"/>
<path style="fill:#EC87C0;" d="M0,319.931c0-94.229,76.389-170.625,170.617-170.625c94.244,0,170.633,76.396,170.633,170.625
	s-76.389,170.617-170.633,170.617C76.388,490.547,0,414.159,0,319.931z"/>
<path style="fill:#5D9CEC;" d="M255.941,172.136c-51.004,29.509-85.324,84.645-85.324,147.794
	c0,63.142,34.32,118.285,85.324,147.778c50.989-29.493,85.309-84.637,85.309-147.778
	C341.25,256.781,306.929,201.645,255.941,172.136z"/>
<path style="fill:#FFCE54;" d="M255.941,362.577c-94.244,0-170.632-76.389-170.632-170.609
	C85.308,97.731,161.697,21.335,255.941,21.335c94.229,0,170.618,76.396,170.618,170.633
	C426.558,286.189,350.17,362.577,255.941,362.577z"/>
<path style="fill:#A0D468;" d="M170.617,319.931c0,6.937,0.437,13.778,1.234,20.526c24.822,14.091,53.519,22.12,84.09,22.12
	c94.229,0,170.618-76.389,170.618-170.609c0-6.951-0.422-13.802-1.219-20.526c-24.822-14.083-53.52-22.136-84.09-22.136
	C247.021,149.305,170.617,225.702,170.617,319.931z"/>
<path style="fill:#ED5564;" d="M170.617,149.305c-30.571,0-59.252,8.053-84.075,22.136c-0.812,6.725-1.234,13.575-1.234,20.526
	c0,94.221,76.389,170.609,170.632,170.609c30.571,0,59.268-8.029,84.075-22.12c0.812-6.748,1.234-13.59,1.234-20.526
	C341.25,225.702,264.861,149.305,170.617,149.305z"/>
<path style="fill:#434A54;" d="M260.783,362.514c1.281-0.031,2.562-0.094,3.844-0.156c0.141,0,0.281,0,0.438-0.031
	c1.156-0.062,2.296-0.125,3.451-0.219c0.312,0,0.641-0.031,0.953-0.062c1.234-0.094,2.469-0.188,3.703-0.312
	c0.25-0.031,0.516-0.062,0.766-0.094c1.046-0.125,2.077-0.219,3.107-0.344c0.328-0.062,0.656-0.094,0.984-0.125
	c1.188-0.156,2.375-0.344,3.547-0.5c0.344-0.062,0.703-0.125,1.047-0.156c0.937-0.155,1.858-0.312,2.78-0.468
	c0.358-0.062,0.718-0.125,1.077-0.188c1.125-0.219,2.234-0.438,3.359-0.656c0.422-0.062,0.844-0.156,1.266-0.25
	c0.843-0.188,1.671-0.375,2.499-0.562c0.391-0.062,0.78-0.156,1.171-0.25c1.062-0.25,2.109-0.5,3.156-0.781
	c0.5-0.125,0.984-0.25,1.484-0.375c0.734-0.188,1.468-0.406,2.202-0.594c0.672-0.188,1.358-0.374,2.03-0.593
	c0.75-0.188,1.484-0.406,2.219-0.656c0.547-0.156,1.109-0.344,1.656-0.5c0.625-0.219,1.266-0.406,1.89-0.625
	c0.859-0.281,1.718-0.562,2.577-0.875c0.547-0.188,1.078-0.375,1.625-0.562c0.609-0.218,1.219-0.437,1.812-0.655
	c0.516-0.188,1.016-0.375,1.516-0.594c0.999-0.375,1.999-0.75,2.998-1.156c0.406-0.188,0.828-0.344,1.234-0.531
	c0.656-0.25,1.312-0.531,1.953-0.812c0.266-0.125,0.531-0.219,0.797-0.344c1.219-0.531,2.437-1.062,3.64-1.624
	c0.344-0.156,0.671-0.312,1.015-0.469c2.141-1.031,4.266-2.094,6.358-3.187c0.281-0.125,0.562-0.281,0.844-0.438
	c1.405-0.75,2.796-1.5,4.187-2.281c0.016-0.031,0.031-0.031,0.047-0.031c0.812-6.748,1.234-13.59,1.234-20.526
	c0-63.149-34.32-118.285-85.309-147.794c-51.004,29.509-85.324,84.645-85.324,147.794c0,6.937,0.437,13.778,1.234,20.526
	c0.062,0.031,0.141,0.062,0.203,0.094c1.328,0.75,2.671,1.5,4.03,2.219c0.281,0.156,0.578,0.312,0.859,0.469
	c2.093,1.093,4.202,2.124,6.342,3.124c0.343,0.188,0.687,0.344,1.031,0.5c1.172,0.53,2.359,1.062,3.546,1.593
	c0.297,0.125,0.594,0.25,0.891,0.375c0.641,0.281,1.281,0.562,1.937,0.812c0.422,0.188,0.844,0.344,1.265,0.531
	c0.969,0.406,1.969,0.781,2.953,1.156c0.516,0.188,1.016,0.406,1.531,0.594c0.609,0.219,1.219,0.438,1.828,0.655
	c0.531,0.188,1.078,0.375,1.625,0.562c0.843,0.312,1.703,0.594,2.562,0.875c0.625,0.219,1.265,0.406,1.906,0.625
	c0.546,0.188,1.093,0.344,1.656,0.5c0.734,0.25,1.468,0.469,2.218,0.688c0.672,0.188,1.343,0.374,2.015,0.562
	c0.734,0.188,1.468,0.406,2.218,0.594c0.484,0.125,0.984,0.25,1.484,0.375c1.031,0.281,2.093,0.531,3.14,0.781
	c0.39,0.094,0.781,0.188,1.171,0.25c0.844,0.188,1.671,0.375,2.5,0.562c0.422,0.094,0.859,0.188,1.281,0.25
	c1.109,0.219,2.234,0.438,3.343,0.656c0.359,0.062,0.718,0.125,1.078,0.188c0.922,0.156,1.859,0.312,2.796,0.468
	c0.344,0.031,0.688,0.094,1.031,0.156c1.188,0.156,2.359,0.344,3.546,0.5c0.328,0.031,0.671,0.062,1,0.125
	c1.031,0.125,2.062,0.219,3.093,0.344c0.266,0.031,0.516,0.062,0.781,0.094c1.234,0.125,2.452,0.219,3.702,0.312
	c0.312,0.031,0.625,0.062,0.937,0.062c1.156,0.094,2.312,0.156,3.468,0.219c0.141,0.031,0.297,0.031,0.437,0.031
	c1.281,0.062,2.562,0.125,3.843,0.156c0.312,0,0.609,0,0.921,0.031c1.297,0.031,2.609,0.031,3.921,0.031
	c1.313,0,2.609,0,3.906-0.031C260.158,362.514,260.47,362.514,260.783,362.514z"/>
<g>
</g>
<g>
</g>
<g>
</g>
<g>
</g>
<g>
</g>
<g>
</g>
<g>
</g>
<g>
</g>
<g>
</g>
<g>
</g>
<g>
</g>
<g>
</g>
<g>
</g>
<g>
</g>
<g>
</g>
</svg>
